<svg version="1.1" id="Layer_1" xmlns="http://www.w3.org/2000/svg" xmlns:xlink="http://www.w3.org/1999/xlink" x="0px" y="0px"
	 width="100%" viewBox="0 0 500 500" enable-background="new 0 0 500 500" xml:space="preserve">
<path fill="transparent" opacity="1.000000" stroke="none" 
	d="
M279.000000,501.000000 
	C186.000015,501.000000 93.500046,501.000000 1.000050,501.000000 
	C1.000033,334.333405 1.000033,167.666794 1.000017,1.000139 
	C167.666565,1.000093 334.333130,1.000093 500.999756,1.000046 
	C500.999847,167.666519 500.999847,334.333038 500.999939,500.999786 
	C427.166656,501.000000 353.333344,501.000000 279.000000,501.000000 
M153.366669,324.852783 
	C152.201477,325.187958 151.036285,325.523132 149.900513,325.949280 
	C149.900513,325.949280 149.991425,325.919617 149.184204,326.294891 
	C149.113617,335.601379 149.021530,344.907898 149.018692,354.214386 
	C149.018509,354.866150 149.679016,355.518097 150.095108,356.617157 
	C150.271088,356.914062 150.529312,357.034302 151.290436,357.768158 
	C161.251312,357.846741 171.212143,357.944855 181.173111,357.959961 
	C181.836792,357.960968 182.501419,357.331970 183.819000,356.630310 
	C183.672043,354.224823 182.844391,352.863617 179.981934,352.945007 
	C172.000717,353.171936 164.011368,353.113037 155.468735,352.981995 
	C155.284454,352.916809 155.100159,352.851624 154.928619,351.890686 
	C154.931549,345.430328 155.017059,338.968384 154.895279,332.510376 
	C154.848999,330.056091 154.326050,327.610779 153.366669,324.852783 
M342.660980,164.154892 
	C332.539276,164.100555 322.417542,164.022461 312.295959,164.041733 
	C311.568268,164.043121 310.841919,164.755478 309.727997,165.784058 
	C308.249023,168.897858 310.204498,169.027969 312.472870,169.015442 
	C318.750488,168.980728 325.030762,168.896164 331.305023,169.043289 
	C333.852753,169.103027 336.387573,169.711441 338.994110,170.996170 
	C338.994110,179.917053 338.994110,188.837936 338.994110,198.468750 
	C340.753235,197.862427 341.873383,197.476364 343.788605,196.690140 
	C343.854736,187.599564 343.963715,178.508896 343.944275,169.418503 
	C343.941071,167.924484 343.373596,166.431686 342.660980,164.154892 
M337.979492,325.386536 
	C337.979492,325.386536 337.852661,325.798981 337.256256,326.229279 
	C333.591980,334.814636 329.927704,343.399963 326.111450,352.421112 
	C326.111450,352.421112 325.998077,352.867340 325.070282,352.980103 
	C320.915588,352.986450 316.748901,352.819824 312.613647,353.106476 
	C311.400818,353.190491 310.277222,354.561493 309.112701,355.342621 
	C310.256470,356.229584 311.318817,357.720428 312.559662,357.887726 
	C315.984497,358.349609 319.483978,358.258148 322.909515,359.097687 
	C317.763153,371.023346 312.614929,382.948212 307.471069,394.874939 
	C303.972961,402.985779 300.481018,411.099274 296.747437,419.766083 
	C302.478851,419.766083 307.430237,419.898499 312.363800,419.661011 
	C313.426514,419.609863 314.916107,418.441864 315.370667,417.416595 
	C317.752686,412.044037 319.816437,406.531586 322.080597,401.105225 
	C327.669495,387.710449 333.307373,374.336121 339.878876,361.000549 
	C359.816559,361.000427 379.754333,360.967865 399.691925,361.012146 
	C411.809845,361.039062 423.927460,361.184509 436.259979,361.919922 
	C444.215393,380.941956 452.170807,399.964020 460.453430,419.790802 
	C471.850769,419.859558 483.248077,419.941833 494.645447,419.946411 
	C495.088928,419.946594 495.532776,419.201965 496.016205,418.064697 
	C495.892151,417.421600 495.882599,416.728668 495.627502,416.142578 
	C485.278687,392.363098 474.944214,368.577271 464.531738,344.825623 
	C443.365265,296.543304 422.172699,248.272324 400.869659,200.050232 
	C400.289459,198.736893 398.344238,197.295822 396.998199,197.258423 
	C395.669373,197.221481 393.631348,198.586212 393.040161,199.862228 
	C387.290771,212.271820 381.708038,224.760483 376.219879,237.288803 
	C369.614624,252.367233 363.138519,267.502258 356.623413,282.620117 
	C350.696960,296.372009 344.793152,310.133667 338.424347,324.090759 
	C338.119263,324.301483 337.989685,324.590790 337.979492,325.386536 
M150.981415,164.931381 
	C150.981415,164.931381 150.901276,164.904648 150.211273,165.236069 
	C149.968933,167.462112 149.726593,169.688171 149.189758,172.632736 
	C144.495667,184.955917 139.669708,197.230820 135.138168,209.613480 
	C128.225021,228.503998 121.535072,247.476135 114.682884,266.389160 
	C114.121895,267.937592 113.044365,269.298889 111.933678,271.219513 
	C102.113762,247.227844 92.597305,224.150116 83.216278,201.017471 
	C69.356934,166.841766 55.631817,132.611496 41.665314,98.479828 
	C41.040207,96.952171 38.626095,95.245308 36.993439,95.191391 
	C27.503994,94.877968 17.999008,95.043739 8.499310,95.027328 
	C5.340640,95.021866 4.146471,96.196198 5.552524,99.362869 
	C9.233765,107.653687 12.803418,115.994019 16.477903,124.287872 
	C21.824919,136.356873 27.310844,148.365005 32.579811,160.467758 
	C38.767487,174.680817 44.681267,189.013428 50.906872,203.209534 
	C57.599361,218.470276 64.645035,233.576462 71.303558,248.851669 
	C80.788826,270.611694 90.008995,292.487366 99.534172,314.229614 
	C100.229843,315.817566 102.499176,317.714508 103.997681,317.681641 
	C105.612625,317.646210 108.009697,315.835419 108.643066,314.235870 
	C115.471794,296.990295 121.951485,279.607056 128.664444,262.314911 
	C134.700363,246.766846 140.988312,231.316452 146.998154,215.758469 
	C149.226410,209.990082 150.979706,204.038223 153.590622,197.886856 
	C153.985275,196.907852 154.379929,195.928848 154.919479,194.441986 
	C155.012344,194.292450 155.105209,194.142899 155.708496,193.764343 
	C155.851639,192.559753 155.994781,191.355179 156.777237,189.802856 
	C159.220596,183.204788 161.663956,176.606735 164.865814,169.659470 
	C169.920105,169.445801 174.984985,169.357803 180.021545,168.933624 
	C181.346893,168.821991 182.584656,167.670319 183.862656,166.996262 
	C182.573288,166.326630 181.334915,165.226807 179.985138,165.066833 
	C175.683762,164.556961 171.340942,164.396576 167.265045,163.431061 
	C176.026825,140.958862 184.788605,118.486671 193.925400,95.052658 
	C188.133484,95.052658 183.819016,94.835304 179.551971,95.189339 
	C178.322876,95.291321 176.686310,96.814484 176.167465,98.070587 
	C173.654221,104.155220 171.417343,110.355942 169.157150,116.542786 
	C163.399994,132.301895 157.682556,148.075516 151.821152,164.004593 
	C151.821152,164.004593 151.960358,164.156357 151.431335,164.062973 
	C151.253876,164.358536 151.076401,164.654099 150.981415,164.931381 
M287.268402,227.039597 
	C276.516235,224.670700 265.862701,221.429245 254.981781,220.199432 
	C245.695862,219.149887 235.986115,219.421448 226.763687,220.935257 
	C217.897263,222.390625 209.219345,225.698929 200.805115,229.060410 
	C182.384262,236.419479 166.264618,247.527420 151.606491,260.826691 
	C148.804077,263.369324 148.843048,265.697235 151.568268,268.138062 
	C154.634552,270.884369 157.552094,273.830627 160.822845,276.309113 
	C179.766006,290.663696 199.946701,302.656403 223.516052,307.754700 
	C241.015137,311.539886 258.423828,310.889008 275.705200,306.136536 
	C289.474396,302.349945 302.406860,296.511749 314.273010,288.779755 
	C324.870483,281.874420 334.645081,273.706207 345.471832,265.577972 
	C339.681244,260.365295 335.309570,255.864441 330.376648,252.098831 
	C317.292328,242.110718 303.269470,233.640656 287.268402,227.039597 
z"/>
<path fill="#054A49" opacity="1.000000" stroke="none" 
	d="
M338.879364,323.891022 
	C344.793152,310.133667 350.696960,296.372009 356.623413,282.620117 
	C363.138519,267.502258 369.614624,252.367233 376.219879,237.288803 
	C381.708038,224.760483 387.290771,212.271820 393.040161,199.862228 
	C393.631348,198.586212 395.669373,197.221481 396.998199,197.258423 
	C398.344238,197.295822 400.289459,198.736893 400.869659,200.050232 
	C422.172699,248.272324 443.365265,296.543304 464.531738,344.825623 
	C474.944214,368.577271 485.278687,392.363098 495.627502,416.142578 
	C495.882599,416.728668 495.892151,417.421600 495.538025,418.504608 
	C483.415283,418.958344 471.770782,418.972198 460.126251,418.986053 
	C452.170807,399.964020 444.215393,380.941956 436.059418,361.149933 
	C435.211700,360.256714 434.564606,360.026001 433.917389,360.025604 
	C403.272797,360.006866 372.628235,359.998932 341.983704,360.046783 
	C340.963867,360.048370 339.944916,360.638031 338.925568,360.953552 
	C333.307373,374.336121 327.669495,387.710449 322.080597,401.105225 
	C319.816437,406.531586 317.752686,412.044037 315.370667,417.416595 
	C314.916107,418.441864 313.426514,419.609863 312.363800,419.661011 
	C307.430237,419.898499 302.478851,419.766083 296.747437,419.766083 
	C300.481018,411.099274 303.972961,402.985779 307.471069,394.874939 
	C312.614929,382.948212 317.763153,371.023346 323.128143,358.519348 
	C323.401855,357.750977 323.456970,357.560974 323.770081,357.332886 
	C324.363953,357.177063 324.699829,357.059326 325.495972,357.014801 
	C330.598846,357.108490 335.256256,357.335999 339.873871,357.006134 
	C341.052002,356.921967 343.038605,355.096252 343.066772,354.028839 
	C343.302887,345.083282 343.157196,336.127960 343.153290,327.175598 
	C343.152100,324.415619 341.693787,323.736786 339.175171,324.203308 
	C339.078369,324.097504 338.879364,323.891022 338.879364,323.891022 
M344.185181,346.183594 
	C345.505280,346.788025 346.823334,347.914520 348.145813,347.919647 
	C374.086761,348.020935 400.028229,348.006104 425.969452,347.948242 
	C427.308929,347.945282 428.647095,347.346100 429.886017,346.281250 
	C416.003693,312.046631 402.121368,277.812042 387.788696,242.466812 
	C373.157684,277.763123 359.052307,311.791473 344.185181,346.183594 
z"/>
<path fill="#064A49" opacity="1.000000" stroke="none" 
	d="
M152.949585,198.170029 
	C150.979706,204.038223 149.226410,209.990082 146.998154,215.758469 
	C140.988312,231.316452 134.700363,246.766846 128.664444,262.314911 
	C121.951485,279.607056 115.471794,296.990295 108.643066,314.235870 
	C108.009697,315.835419 105.612625,317.646210 103.997681,317.681641 
	C102.499176,317.714508 100.229843,315.817566 99.534172,314.229614 
	C90.008995,292.487366 80.788826,270.611694 71.303558,248.851669 
	C64.645035,233.576462 57.599361,218.470276 50.906872,203.209534 
	C44.681267,189.013428 38.767487,174.680817 32.579811,160.467758 
	C27.310844,148.365005 21.824919,136.356873 16.477903,124.287872 
	C12.803418,115.994019 9.233765,107.653687 5.552524,99.362869 
	C4.146471,96.196198 5.340640,95.021866 8.499310,95.027328 
	C17.999008,95.043739 27.503994,94.877968 36.993439,95.191391 
	C38.626095,95.245308 41.040207,96.952171 41.665314,98.479828 
	C55.631817,132.611496 69.356934,166.841766 83.216278,201.017471 
	C92.597305,224.150116 102.113762,247.227844 111.933678,271.219513 
	C113.044365,269.298889 114.121895,267.937592 114.682884,266.389160 
	C121.535072,247.476135 128.225021,228.503998 135.138168,209.613480 
	C139.669708,197.230820 144.495667,184.955917 149.512161,172.637634 
	C149.879837,179.570496 149.742844,186.507996 150.104767,193.419357 
	C150.190063,195.048096 151.956512,196.588821 152.949585,198.170029 
z"/>
<path fill="#A0C154" opacity="1.000000" stroke="none" 
	d="
M287.618408,227.227325 
	C303.269470,233.640656 317.292328,242.110718 330.376648,252.098831 
	C335.309570,255.864441 339.681244,260.365295 345.471832,265.577972 
	C334.645081,273.706207 324.870483,281.874420 314.273010,288.779755 
	C302.406860,296.511749 289.474396,302.349945 275.705200,306.136536 
	C258.423828,310.889008 241.015137,311.539886 223.516052,307.754700 
	C199.946701,302.656403 179.766006,290.663696 160.822845,276.309113 
	C157.552094,273.830627 154.634552,270.884369 151.568268,268.138062 
	C148.843048,265.697235 148.804077,263.369324 151.606491,260.826691 
	C166.264618,247.527420 182.384262,236.419479 200.805115,229.060410 
	C209.219345,225.698929 217.897263,222.390625 226.763687,220.935257 
	C235.986115,219.421448 245.695862,219.149887 254.981781,220.199432 
	C265.862701,221.429245 276.516235,224.670700 287.618408,227.227325 
M217.078735,228.416245 
	C193.881577,236.024689 173.580612,248.386642 155.764923,264.752319 
	C159.233154,268.031281 161.836334,271.082336 164.990265,273.376160 
	C182.378815,286.022644 200.654434,296.821655 221.747940,302.484711 
	C236.360947,306.407898 250.987701,306.680023 265.428741,303.586151 
	C282.708649,299.884125 298.929535,292.946930 313.519714,282.740326 
	C321.595459,277.090912 329.407043,271.063873 337.889709,264.799377 
	C331.834778,259.959625 327.213959,255.366089 321.788849,252.114395 
	C309.954987,245.021423 297.982178,238.047699 285.556122,232.088730 
	C274.303650,226.692596 261.986694,224.611526 249.455246,223.939667 
	C238.618317,223.358658 228.260406,225.822189 217.078735,228.416245 
z"/>
<path fill="#074A48" opacity="1.000000" stroke="none" 
	d="
M151.949249,163.843323 
	C157.682556,148.075516 163.399994,132.301895 169.157150,116.542786 
	C171.417343,110.355942 173.654221,104.155220 176.167465,98.070587 
	C176.686310,96.814484 178.322876,95.291321 179.551971,95.189339 
	C183.819016,94.835304 188.133484,95.052658 193.925400,95.052658 
	C184.788605,118.486671 176.026825,140.958862 166.735245,163.804092 
	C161.453384,164.065857 156.701309,163.954590 151.949249,163.843323 
z"/>
<path fill="#94BE4E" opacity="1.000000" stroke="none" 
	d="
M151.885193,163.923950 
	C156.701309,163.954590 161.453384,164.065857 166.609802,164.139160 
	C171.340942,164.396576 175.683762,164.556961 179.985138,165.066833 
	C181.334915,165.226807 182.573288,166.326630 183.862656,166.996246 
	C182.584656,167.670319 181.346893,168.821991 180.021545,168.933624 
	C174.984985,169.357803 169.920105,169.445801 164.506470,169.786774 
	C164.147110,169.914093 164.073166,169.842957 163.792252,169.535767 
	C160.599609,169.228592 157.687866,169.228592 153.888062,169.228592 
	C154.343460,177.837387 154.770782,185.915359 155.198090,193.993332 
	C155.105209,194.142899 155.012344,194.292450 154.504807,194.767029 
	C150.805908,196.318451 151.013641,194.046616 151.005295,192.005585 
	C150.968307,182.971939 150.935562,173.938293 150.901276,164.904648 
	C150.901276,164.904648 150.981415,164.931381 151.153061,164.859558 
	C151.608856,164.650009 151.820740,164.439560 151.960358,164.156357 
	C151.960358,164.156357 151.821152,164.004593 151.885193,163.923950 
z"/>
<path fill="#074A48" opacity="1.000000" stroke="none" 
	d="
M326.263458,351.985321 
	C329.927704,343.399963 333.591980,334.814636 337.595123,326.497498 
	C337.962311,331.244324 338.010498,335.722900 338.015045,340.201538 
	C338.027100,352.093842 338.019592,352.093842 326.263458,351.985321 
z"/>
<path fill="#9CC347" opacity="1.000000" stroke="none" 
	d="
M154.915863,352.786438 
	C155.100159,352.851624 155.284454,352.916809 156.094849,353.291840 
	C163.928177,353.732697 171.135849,353.844147 178.342300,354.008789 
	C180.095657,354.048859 182.470657,353.683655 180.639328,356.876343 
	C179.859802,356.899170 179.413086,356.876648 178.622787,356.634674 
	C170.199860,356.555695 162.120499,356.696106 153.709305,356.877045 
	C152.936234,356.874115 152.495010,356.830688 152.018127,356.379822 
	C151.660110,351.215607 151.315842,346.460236 151.021637,341.701752 
	C150.738403,337.120850 150.506927,332.536713 150.204590,327.615509 
	C150.101456,326.824554 150.046448,326.372070 149.991425,325.919617 
	C149.991425,325.919617 149.900513,325.949280 150.241379,325.960632 
	C151.719711,326.312683 152.857178,326.653412 154.051208,327.460419 
	C154.377121,336.213287 154.646484,344.499847 154.915863,352.786438 
z"/>
<path fill="#054A49" opacity="1.000000" stroke="none" 
	d="
M339.402222,360.977051 
	C339.944916,360.638031 340.963867,360.048370 341.983704,360.046783 
	C372.628235,359.998932 403.272797,360.006866 433.917389,360.025604 
	C434.564606,360.026001 435.211700,360.256714 435.952026,360.828308 
	C423.927460,361.184509 411.809845,361.039062 399.691925,361.012146 
	C379.754333,360.967865 359.816559,361.000427 339.402222,360.977051 
z"/>
<path fill="#074A48" opacity="1.000000" stroke="none" 
	d="
M164.127213,169.961380 
	C161.663956,176.606735 159.220596,183.204788 156.419434,189.497162 
	C156.028732,185.572998 155.976288,181.954575 155.966919,178.336060 
	C155.945908,170.232697 155.954636,170.232681 164.073166,169.842957 
	C164.073166,169.842957 164.147110,169.914093 164.127213,169.961380 
z"/>
<path fill="#9FBF5F" opacity="1.000000" stroke="none" 
	d="
M338.928284,170.070190 
	C336.387573,169.711441 333.852753,169.103027 331.305023,169.043289 
	C325.030762,168.896164 318.750488,168.980728 312.472870,169.015442 
	C310.204498,169.027969 308.249023,168.897858 310.381561,165.462997 
	C320.686523,165.152115 330.337952,165.162292 339.741516,165.391510 
	C332.752014,165.737137 326.009888,165.845596 319.268921,166.002380 
	C317.462311,166.044388 315.659149,166.233841 313.854401,166.355621 
	C313.883698,166.905441 313.912994,167.455276 313.942261,168.005096 
	C320.631927,168.005096 327.325836,167.875153 334.008209,168.095535 
	C335.701416,168.151352 337.357788,169.323410 339.005188,170.004242 
	C338.979279,170.025909 338.928284,170.070190 338.928284,170.070190 
z"/>
<path fill="#9FBF5F" opacity="1.000000" stroke="none" 
	d="
M342.993500,197.090286 
	C341.873383,197.476364 340.753235,197.862427 338.994110,198.468750 
	C338.994110,188.837936 338.994110,179.917053 338.961182,170.533173 
	C338.928284,170.070190 338.979279,170.025909 339.259247,170.333801 
	C339.817322,178.456528 340.095428,186.271347 340.373566,194.086182 
	C340.919159,194.066071 341.464783,194.045944 342.010376,194.025833 
	C342.010376,190.258575 341.904907,186.487656 342.035828,182.724960 
	C342.218414,177.477219 342.577759,172.235611 342.924622,167.456848 
	C342.989685,177.644958 342.991577,187.367630 342.993500,197.090286 
z"/>
<path fill="#97C15F" opacity="1.000000" stroke="none" 
	d="
M323.512054,357.370941 
	C323.456970,357.560974 323.401855,357.750977 323.150330,358.163269 
	C319.483978,358.258148 315.984497,358.349609 312.559662,357.887726 
	C311.318817,357.720428 310.256470,356.229584 309.112701,355.342621 
	C310.277222,354.561493 311.400818,353.190491 312.613647,353.106476 
	C316.748901,352.819824 320.915588,352.986450 325.990173,352.987854 
	C330.919678,352.992706 334.929260,352.989777 338.623291,353.246155 
	C330.185120,353.505493 322.062531,353.505493 313.939911,353.505493 
	C313.924683,354.080994 313.909485,354.656494 313.894257,355.231995 
	C317.100189,355.944977 320.306122,356.657959 323.512054,357.370941 
z"/>
<path fill="#1C5731" opacity="1.000000" stroke="none" 
	d="
M163.792252,169.535767 
	C155.954636,170.232681 155.945908,170.232697 155.966919,178.336060 
	C155.976288,181.954575 156.028732,185.572998 156.099792,189.671021 
	C155.994781,191.355179 155.851639,192.559753 155.453293,193.878845 
	C154.770782,185.915359 154.343460,177.837387 153.888062,169.228592 
	C157.687866,169.228592 160.599609,169.228592 163.792252,169.535767 
z"/>
<path fill="#97C15F" opacity="1.000000" stroke="none" 
	d="
M150.556274,165.070358 
	C150.935562,173.938293 150.968307,182.971939 151.005295,192.005585 
	C151.013641,194.046616 150.805908,196.318451 154.432358,195.020966 
	C154.379929,195.928848 153.985275,196.907852 153.270111,198.028442 
	C151.956512,196.588821 150.190063,195.048096 150.104767,193.419357 
	C149.742844,186.507996 149.879837,179.570496 149.659409,172.278381 
	C149.726593,169.688171 149.968933,167.462112 150.556274,165.070358 
z"/>
<path fill="#1C5731" opacity="1.000000" stroke="none" 
	d="
M338.938843,352.986847 
	C334.929260,352.989777 330.919678,352.992706 326.454102,352.931488 
	C325.998077,352.867340 326.111450,352.421112 326.187439,352.203217 
	C338.019592,352.093842 338.027100,352.093842 338.015045,340.201538 
	C338.010498,335.722900 337.962311,331.244324 337.893311,326.282349 
	C337.852661,325.798981 337.979492,325.386536 338.200806,325.181763 
	C338.422119,324.977020 338.809174,324.998505 338.906433,325.458130 
	C339.075317,334.593018 339.146942,343.268311 339.147858,352.204193 
	C339.031006,352.638824 338.984924,352.812836 338.938843,352.986847 
z"/>
<path fill="#054A49" opacity="1.000000" stroke="none" 
	d="
M460.289856,419.388428 
	C471.770782,418.972198 483.415283,418.958344 495.518127,418.874451 
	C495.532776,419.201965 495.088928,419.946594 494.645447,419.946411 
	C483.248077,419.941833 471.850769,419.859558 460.289856,419.388428 
z"/>
<path fill="#9FBF5F" opacity="1.000000" stroke="none" 
	d="
M180.972137,356.830994 
	C182.470657,353.683655 180.095657,354.048859 178.342300,354.008789 
	C171.135849,353.844147 163.928177,353.732697 156.373108,353.384338 
	C164.011368,353.113037 172.000717,353.171936 179.981934,352.945007 
	C182.844391,352.863617 183.672043,354.224823 183.128281,356.761902 
	C181.949081,356.872650 181.460617,356.851807 180.972137,356.830994 
z"/>
<path fill="#9FBF5F" opacity="1.000000" stroke="none" 
	d="
M339.989349,165.172455 
	C330.337952,165.162292 320.686523,165.152115 310.575012,165.139603 
	C310.841919,164.755478 311.568268,164.043121 312.295959,164.041733 
	C322.417542,164.022461 332.539276,164.100555 342.850037,164.559326 
	C343.039124,164.963745 343.011292,164.989136 342.635712,165.047836 
	C341.503204,165.128510 340.746277,165.150497 339.989349,165.172455 
z"/>
<path fill="#9FBF5F" opacity="1.000000" stroke="none" 
	d="
M150.252701,327.954010 
	C150.506927,332.536713 150.738403,337.120850 151.021637,341.701752 
	C151.315842,346.460236 151.660110,351.215607 151.725098,356.447144 
	C151.268402,356.940552 151.069092,356.959229 150.869797,356.977905 
	C150.529312,357.034302 150.271088,356.914062 150.091293,355.913025 
	C150.142563,346.123962 150.197632,337.038971 150.252701,327.954010 
z"/>
<path fill="#054A49" opacity="1.000000" stroke="none" 
	d="
M151.080109,357.373047 
	C151.069092,356.959229 151.268402,356.940552 151.760742,356.854584 
	C152.495010,356.830688 152.936234,356.874115 154.169891,356.942749 
	C162.963669,356.929993 170.965012,356.892029 178.966370,356.854065 
	C179.413086,356.876648 179.859802,356.899170 180.639328,356.876343 
	C181.460617,356.851807 181.949081,356.872650 182.801575,356.944733 
	C182.501419,357.331970 181.836792,357.960968 181.173111,357.959961 
	C171.212143,357.944855 161.251312,357.846741 151.080109,357.373047 
z"/>
<path fill="#9BC540" opacity="1.000000" stroke="none" 
	d="
M343.391052,196.890213 
	C342.991577,187.367630 342.989685,177.644958 342.949524,167.121613 
	C342.944611,165.876999 342.977936,165.433060 343.011292,164.989136 
	C343.011292,164.989136 343.039124,164.963745 343.053040,164.951035 
	C343.373596,166.431686 343.941071,167.924484 343.944275,169.418503 
	C343.963715,178.508896 343.854736,187.599564 343.391052,196.890213 
z"/>
<path fill="#9BC540" opacity="1.000000" stroke="none" 
	d="
M150.204590,327.615509 
	C150.197632,337.038971 150.142563,346.123962 150.059891,355.689453 
	C149.679016,355.518097 149.018509,354.866150 149.018692,354.214386 
	C149.021530,344.907898 149.113617,335.601379 149.587814,326.107239 
	C150.046448,326.372070 150.101456,326.824554 150.204590,327.615509 
z"/>
<path fill="#9BC540" opacity="1.000000" stroke="none" 
	d="
M154.922241,352.338562 
	C154.646484,344.499847 154.377121,336.213287 154.091843,327.156555 
	C154.057404,325.978058 154.038879,325.569733 154.020355,325.161377 
	C154.326050,327.610779 154.848999,330.056091 154.895279,332.510376 
	C155.017059,338.968384 154.931549,345.430328 154.922241,352.338562 
z"/>
<path fill="#9FBF5F" opacity="1.000000" stroke="none" 
	d="
M153.693512,325.007080 
	C154.038879,325.569733 154.057404,325.978058 154.035309,326.690277 
	C152.857178,326.653412 151.719711,326.312683 150.226669,325.915100 
	C151.036285,325.523132 152.201477,325.187958 153.693512,325.007080 
z"/>
<path fill="#054A49" opacity="1.000000" stroke="none" 
	d="
M338.809174,324.998505 
	C338.809174,324.998505 338.422119,324.977020 338.228882,324.967896 
	C337.989685,324.590790 338.119263,324.301483 338.651855,323.990906 
	C338.879364,323.891022 339.078369,324.097504 339.075592,324.386322 
	C339.072815,324.675140 338.809174,324.998505 338.809174,324.998505 
z"/>
<path fill="#97C15F" opacity="1.000000" stroke="none" 
	d="
M151.695847,164.109665 
	C151.820740,164.439560 151.608856,164.650009 151.111816,164.868683 
	C151.076401,164.654099 151.253876,164.358536 151.695847,164.109665 
z"/>
<path fill="transparent" opacity="1.000000" stroke="none" 
	d="
M344.946899,345.819824 
	C359.052307,311.791473 373.157684,277.763123 387.788696,242.466812 
	C402.121368,277.812042 416.003693,312.046631 429.468750,346.639893 
	C402.625275,347.001282 376.199066,347.024780 349.773071,346.955994 
	C348.163391,346.951813 346.555573,346.215515 344.946899,345.819824 
z"/>
<path fill="#9BC540" opacity="1.000000" stroke="none" 
	d="
M338.623291,353.246155 
	C338.984924,352.812836 339.031006,352.638824 339.360687,351.857513 
	C339.644257,343.150146 339.644257,335.050049 339.644257,326.949951 
	C340.430328,326.954071 341.216431,326.958221 342.002502,326.962341 
	C342.002502,335.160370 341.873779,343.361389 342.061584,351.555115 
	C342.144501,355.172089 340.597382,356.073730 337.287109,356.076385 
	C333.203094,356.079681 329.119476,356.628479 325.035706,356.941559 
	C324.699829,357.059326 324.363953,357.177063 323.770081,357.332886 
	C320.306122,356.657959 317.100189,355.944977 313.894257,355.231995 
	C313.909485,354.656494 313.924683,354.080994 313.939911,353.505493 
	C322.062531,353.505493 330.185120,353.505493 338.623291,353.246155 
z"/>
<path fill="#054A49" opacity="1.000000" stroke="none" 
	d="
M344.566040,346.001709 
	C346.555573,346.215515 348.163391,346.951813 349.773071,346.955994 
	C376.199066,347.024780 402.625275,347.001282 429.518677,347.011505 
	C428.647095,347.346100 427.308929,347.945282 425.969452,347.948242 
	C400.028229,348.006104 374.086761,348.020935 348.145813,347.919647 
	C346.823334,347.914520 345.505280,346.788025 344.566040,346.001709 
z"/>
<path fill="#97C15F" opacity="1.000000" stroke="none" 
	d="
M325.495972,357.014801 
	C329.119476,356.628479 333.203094,356.079681 337.287109,356.076385 
	C340.597382,356.073730 342.144501,355.172089 342.061584,351.555115 
	C341.873779,343.361389 342.002502,335.160370 342.002502,326.962341 
	C341.216431,326.958221 340.430328,326.954071 339.644257,326.949951 
	C339.644257,335.050049 339.644257,343.150146 339.431427,351.596924 
	C339.146942,343.268311 339.075317,334.593018 338.906433,325.458130 
	C338.809174,324.998505 339.072815,324.675140 339.172394,324.492126 
	C341.693787,323.736786 343.152100,324.415619 343.153290,327.175598 
	C343.157196,336.127960 343.302887,345.083282 343.066772,354.028839 
	C343.038605,355.096252 341.052002,356.921967 339.873871,357.006134 
	C335.256256,357.335999 330.598846,357.108490 325.495972,357.014801 
z"/>
<path fill="transparent" opacity="1.000000" stroke="none" 
	d="
M217.458771,228.250198 
	C228.260406,225.822189 238.618317,223.358658 249.455246,223.939667 
	C261.986694,224.611526 274.303650,226.692596 285.556122,232.088730 
	C297.982178,238.047699 309.954987,245.021423 321.788849,252.114395 
	C327.213959,255.366089 331.834778,259.959625 337.889709,264.799377 
	C329.407043,271.063873 321.595459,277.090912 313.519714,282.740326 
	C298.929535,292.946930 282.708649,299.884125 265.428741,303.586151 
	C250.987701,306.680023 236.360947,306.407898 221.747940,302.484711 
	C200.654434,296.821655 182.378815,286.022644 164.990265,273.376160 
	C161.836334,271.082336 159.233154,268.031281 155.764923,264.752319 
	C173.580612,248.386642 193.881577,236.024689 217.458771,228.250198 
M220.007675,267.280914 
	C220.147171,277.519379 227.496445,286.574188 238.827560,290.023651 
	C259.009918,296.167633 275.979797,279.071838 273.292023,260.528412 
	C270.918427,244.152313 249.273926,230.895798 231.558807,241.981171 
	C222.566544,247.608154 219.211777,256.028412 220.007675,267.280914 
z"/>
<path fill="#9FBF5F" opacity="1.000000" stroke="none" 
	d="
M178.622787,356.634644 
	C170.965012,356.892029 162.963669,356.929993 154.501740,356.902222 
	C162.120499,356.696106 170.199860,356.555695 178.622787,356.634644 
z"/>
<path fill="#9BC540" opacity="1.000000" stroke="none" 
	d="
M342.635712,165.047836 
	C342.977936,165.433060 342.944611,165.876999 342.886353,166.656158 
	C342.577759,172.235611 342.218414,177.477219 342.035828,182.724960 
	C341.904907,186.487656 342.010376,190.258575 342.010376,194.025833 
	C341.464783,194.045944 340.919159,194.066071 340.373566,194.086182 
	C340.095428,186.271347 339.817322,178.456528 339.285156,170.312134 
	C337.357788,169.323410 335.701416,168.151352 334.008209,168.095535 
	C327.325836,167.875153 320.631927,168.005096 313.942261,168.005096 
	C313.912994,167.455276 313.883698,166.905441 313.854401,166.355621 
	C315.659149,166.233841 317.462311,166.044388 319.268921,166.002380 
	C326.009888,165.845596 332.752014,165.737137 339.741516,165.391510 
	C340.746277,165.150497 341.503204,165.128510 342.635712,165.047836 
z"/>
<path fill="#A1C155" opacity="1.000000" stroke="none" 
	d="
M220.007843,266.818237 
	C219.211777,256.028412 222.566544,247.608154 231.558807,241.981171 
	C249.273926,230.895798 270.918427,244.152313 273.292023,260.528412 
	C275.979797,279.071838 259.009918,296.167633 238.827560,290.023651 
	C227.496445,286.574188 220.147171,277.519379 220.007843,266.818237 
M259.947937,281.564514 
	C262.258331,278.417633 265.270752,275.565887 266.741974,272.066223 
	C270.516052,263.088776 266.653198,251.647766 258.697052,246.304581 
	C250.967422,241.113510 239.452866,241.852188 232.282242,248.251144 
	C222.778885,256.731781 221.561615,273.472351 234.119583,282.641663 
	C242.802231,288.981415 251.100616,287.308746 259.947937,281.564514 
z"/>
<path fill="transparent" opacity="1.000000" stroke="none" 
	d="
M259.684235,281.821869 
	C251.100616,287.308746 242.802231,288.981415 234.119583,282.641663 
	C221.561615,273.472351 222.778885,256.731781 232.282242,248.251144 
	C239.452866,241.852188 250.967422,241.113510 258.697052,246.304581 
	C266.653198,251.647766 270.516052,263.088776 266.741974,272.066223 
	C265.270752,275.565887 262.258331,278.417633 259.684235,281.821869 
M250.190033,272.025177 
	C251.288132,271.035736 252.554169,270.177673 253.451218,269.030975 
	C255.681915,266.179504 255.131378,263.399445 253.216034,260.482544 
	C250.987518,257.088745 247.789612,256.388702 244.311600,257.127350 
	C241.368057,257.752502 239.168182,259.210358 238.818741,263.029083 
	C238.188583,269.915955 241.605042,273.094727 250.190033,272.025177 
z"/>
<path fill="#A1C155" opacity="1.000000" stroke="none" 
	d="
M249.802216,272.044952 
	C241.605042,273.094727 238.188583,269.915955 238.818741,263.029083 
	C239.168182,259.210358 241.368057,257.752502 244.311600,257.127350 
	C247.789612,256.388702 250.987518,257.088745 253.216034,260.482544 
	C255.131378,263.399445 255.681915,266.179504 253.451218,269.030975 
	C252.554169,270.177673 251.288132,271.035736 249.802216,272.044952 
z"/>
</svg>